<?xml version="1.0" encoding="utf-8"?>
<!-- Generator: Adobe Illustrator 16.0.0, SVG Export Plug-In . SVG Version: 6.00 Build 0)  -->
<!DOCTYPE svg PUBLIC "-//W3C//DTD SVG 1.1//EN" "http://www.w3.org/Graphics/SVG/1.1/DTD/svg11.dtd">
<svg version="1.1" id="레이어_1" xmlns="http://www.w3.org/2000/svg" xmlns:xlink="http://www.w3.org/1999/xlink" x="0px"
	 y="0px" width="841.891px" height="595.275px" viewBox="0 0 841.891 595.275" enable-background="new 0 0 841.891 595.275"
	 xml:space="preserve">
<g>
	<g>
		<g>
			<path fill="#E37E1F" d="M-650.14,164.978c0-0.861-0.005-1.729-0.013-2.591c-0.015-1.707-0.015-3.409-0.019-5.103
				c1.432-0.063,1.306,0.268,1.306-1.348c0-0.38,0.033-0.754,0-1.128c-0.301-2.504,0.319-4.764,1.616-6.923
				c0.915-1.539,0.808-1.573-0.751-2.391c-0.555-0.279-0.78-0.197-1.105,0.341c-1.878,2.987-2.767,6.188-2.325,9.721
				c0.056,0.558,0.013,1.128,0.013,1.687c-2.542,0.134-2.542,0.134-3.504-2.144c-0.903-2.084-1.777-4.17-2.703-6.244
				c-0.178-0.427-0.127-0.64,0.292-0.887c2.668-1.64,5.329-3.33,8.006-4.99c1.202-0.738,2.527-1.095,3.956-1.095
				c4.086,0,8.161,0,12.249,0c1.413,0,2.752,0.357,3.95,1.095c2.678,1.653,5.356,3.342,8.016,4.986
				c0.423,0.251,0.465,0.477,0.281,0.89c-1.173,2.636-2.292,5.283-3.411,7.93c-0.159,0.338-0.31,0.508-0.705,0.487
				c-0.686-0.029-1.381-0.025-2.072-0.029c0-0.833-0.08-1.662,0-2.485c0.325-2.896-0.343-5.511-1.851-7.994
				c-0.963-1.557-0.841-1.602-2.495-0.804c-0.559,0.263-0.666,0.508-0.334,1.006c1.819,2.727,2.438,5.718,2.143,8.968
				c-0.155,1.602-0.155,1.284,1.272,1.348c-0.017,2.553-0.026,5.122-0.055,7.682C-635.627,164.969-642.882,164.969-650.14,164.978z
				 M-641.172,156.01c-0.131,1.606-1.108,2.533-2.706,2.545c-0.642,0-1.296,0.018-1.907-0.007c-0.536-0.019-0.592,0.34-0.507,0.681
				c0.178,0.626-0.508,1.71,0.432,1.825c1.982,0.25,4.012,0.214,5.628-1.296c0.197-0.188,0.385-0.285,0.615-0.05
				c1.603,1.542,3.604,1.476,5.62,1.407c0.812-0.028,0.558-0.66,0.474-0.987c-0.122-0.534,0.582-1.386-0.474-1.556
				c-0.617-0.102-1.278-0.018-1.917-0.018c-1.595-0.012-2.575-0.939-2.68-2.545c0.649-0.058,1.199-0.366,1.237-1.027
				c0.009-0.864,0.365-1.837-0.433-2.579c-0.244-0.222-0.564-0.273-0.897-0.269c-0.522,0.012-1.025,0-1.532,0
				c-2.073,0-2.259,0.169-2.241,2.285c0,0.026,0,0.049,0,0.084C-642.44,155.483-642.177,155.793-641.172,156.01z M-645.087,150.852
				c1.339,0,1.339,0,1.339-1.004c0-1.551,0-1.551-1.042-1.551c-1.518,0-1.518,0-1.518,1.087
				C-646.307,150.852-646.307,150.852-645.087,150.852z M-634.689,148.297c-1.361,0-1.361,0-1.361,1.013
				c0,1.542,0,1.542,1.061,1.542c1.495,0,1.495,0,1.495-1.092C-633.494,148.297-633.494,148.297-634.689,148.297z"/>
			<path fill="#E37E1F" d="M-607.834,215.616c0-2.886,0.009-5.764,0-8.653c-0.033-4.162-0.854-8.151-2.536-11.963
				c-0.132-0.321-0.279-0.642-0.132-0.999c1.052-2.199,1.898-4.474,2.303-6.874c0.489-3.016,0.535-6.021-1.043-8.804
				c-0.278-0.476-0.311-0.859-0.123-1.401c1.034-2.842,0.193-5.943-2.142-7.884c-0.404-0.334-0.603-0.674-0.648-1.196
				c-0.268-2.518-2.608-4.442-5.018-4.128c-1.175,0.154-2.283,0.624-3.428,0.975c4.063,6.239,4.8,12.94,3.155,20.013
				c-0.325-0.05-0.451-0.332-0.658-0.542c-2.338-2.313-4.617-4.666-6.973-6.938c-2.047-1.97-3.207-4.285-3.307-7.127
				c-7.244,0-14.497-0.013-21.757-0.013c0,10.839,0,21.677-0.004,32.518c0,2.136-0.009,4.274,0.004,6.412
				c0,0.502-0.033,0.765-0.671,0.895c-2.067,0.438-3.194,1.947-3.194,4.085c0,0.743,0,1.501,0.009,2.242c2.133,0,4.265,0,6.412,0
				c0.855,0,1.706,0,2.551,0c3.007,0,5.995,0,8.984,0c0.855,0,1.719,0,2.556,0c8.39,0.015,16.771,0.015,25.162,0.037
				C-607.779,216.27-607.834,215.974-607.834,215.616z"/>
			<path fill="#EBA93C" d="M-650.14,164.978c0-0.861-0.005-1.729-0.013-2.591c-2.096,0.604-3.91,1.606-4.981,3.602
				c-0.149,0.27-0.386,0.26-0.625,0.26c-1.818,0-3.631-0.01-5.446,0.007c-0.328,0-0.526-0.086-0.704-0.39
				c-0.949-1.614-2.358-2.617-4.134-3.224c-0.752-0.255-0.79-0.076-0.79,0.592c0.029,5.156,0.009,10.306,0.009,15.467
				c0,1.736-0.601,3.201-2.021,4.245c-2.705,2.002-5.758,3.536-8.239,6.136c0-1.108,0.047-2.037,0-2.96
				c-0.046-1.308,0.319-2.466,1.071-3.533c0.583-0.827,1.137-1.676,1.69-2.528c1.945-2.894,2.759-6.049,2.218-9.508
				c-0.615-3.858-2.617-6.839-5.802-9.029c-1.236-0.857-3.049-0.468-3.858,0.718c-0.844,1.214-0.534,2.646,0.771,3.642
				c0.197,0.141,0.395,0.288,0.582,0.429c3.581,2.716,4.36,7.273,1.917,11.029c-0.761,1.144-1.503,2.283-2.274,3.401
				c-0.998,1.455-1.466,3.054-1.455,4.823c0.026,5.58,0.013,11.158,0.013,16.743c0,4.404,0.013,8.81-0.013,13.213
				c-0.011,0.62,0.158,0.771,0.764,0.749c1.253-0.037,2.556-0.004,3.829-0.007c4.892-0.015,9.791-0.019,14.664-0.03
				c0.85,0,1.687,0,2.541,0c0.874,0,1.729,0,2.584,0c0.861,0,1.701,0,2.557,0c0.424,0,0.86,0,1.288,0
				c-0.009-0.74-0.009-1.499-0.009-2.242c0-2.138,1.126-3.647,3.194-4.085c0.639-0.129,0.671-0.393,0.671-0.895
				c-0.013-2.138-0.005-4.276-0.005-6.412c0.005-10.841,0.005-21.679,0.005-32.518C-650.14,168.382-650.14,166.676-650.14,164.978z
				 M-661.67,170.095c1.26,0,1.26,0,1.26,1.468c0,1.097,0,1.097-1.565,1.095c-0.997,0-0.997,0-0.997-1.589
				C-662.972,170.095-662.972,170.095-661.67,170.095z M-655.238,172.658c-1.333,0-1.333,0-1.325-1.523c0-1.04,0-1.04,1.55-1.04
				c1.007,0,1.007,0,1.007,1.558C-654.007,172.658-654.007,172.658-655.238,172.658z"/>
		</g>
		<g>
			<path fill="none" d="M-684.887,268.368c0,1.634,0.817,2.446,2.452,2.446h26.789v-10.782h-29.241V268.368z"/>
			<path fill="none" d="M-684.887,235.536v8.166h29.241v-10.618h-26.789C-684.07,233.084-684.887,233.899-684.887,235.536z"/>
			<path fill="none" d="M-832.562,277.189v-40.836h-12.258v41.165c2.076,0,4.125,0,6.136,0
				C-836.664,277.518-834.634,277.406-832.562,277.189z"/>
			<path fill="#EBA93C" d="M-747.771,343.837c-5.023-2.176-9.711-4.305-14.062-6.369c-4.354-2.063-8.879-4.307-13.539-6.697
				c-4.272-2.174-7.508-4.764-9.735-7.766c-2.236-2.986-3.345-6.938-3.345-11.838v-3.59c0-2.945-1.062-5.123-3.181-6.539
				c-2.129-1.414-4.562-2.125-7.278-2.125c-2.714,0-5.13,0.711-7.268,2.125c-2.128,1.416-3.181,3.594-3.181,6.539v3.59
				c0,4.902-1.128,8.852-3.35,11.838c-2.23,3.002-5.483,5.592-9.72,7.766c-4.689,2.391-9.208,4.635-13.568,6.697
				c-4.351,2.064-9.039,4.193-14.039,6.369c-2.288,0.977-3.645,2.674-4.086,5.064c-0.433,2.396-0.17,4.682,0.807,6.863
				c1.1,2.176,2.716,3.834,4.826,4.982c2.124,1.141,4.486,1.107,7.108-0.082c4.575-1.85,8.728-3.703,12.497-5.553
				c3.749-1.859,7.534-3.758,11.35-5.719c6.757-3.49,11.407-6.432,13.974-8.822c2.555-2.396,4.105-4.684,4.649-6.865h0.16
				c0.338,0.984,0.851,2.02,1.55,3.105c0.729,1.09,1.739,2.232,3.105,3.436c1.373,1.193,3.172,2.498,5.389,3.918
				c2.236,1.412,5.045,2.998,8.419,4.736c3.8,1.965,7.61,3.861,11.355,5.713c3.748,1.855,7.925,3.701,12.492,5.563
				c2.622,1.201,4.979,1.223,7.112,0.076c2.124-1.135,3.722-2.807,4.816-4.98c0.973-1.959,1.254-4.115,0.808-6.455
				C-744.13,346.474-745.489,344.815-747.771,343.837z"/>
			<path fill="#EBA93C" d="M-806.409,248.604c-1.211,1.744-1.813,3.813-1.813,6.204c0,2.396,0.602,4.465,1.813,6.211
				c1.175,1.744,3.04,2.616,5.533,2.616h7.528v21.89c0,2.829,0.968,4.896,2.931,6.2c1.965,1.316,4.143,1.964,6.541,1.964
				c2.396,0,4.576-0.647,6.524-1.964c1.979-1.305,2.937-3.371,2.937-6.2v-66.493c0-2.825-0.958-4.897-2.937-6.203
				c-1.949-1.313-4.129-1.964-6.524-1.964c-2.397,0-4.576,0.65-6.541,1.964c-1.963,1.306-2.931,3.378-2.931,6.203v26.954h-7.528
				C-803.369,245.984-805.234,246.864-806.409,248.604z"/>
			<path fill="#EBA93C" d="M-834.93,293.932c4.951-0.163,9.757-0.407,14.372-0.735c4.632-0.331,9.404-0.768,14.291-1.308
				c2.179-0.215,3.767-1.299,4.744-3.264c0.968-1.964,1.367-4.032,1.138-6.208c-0.207-2.176-1.043-3.979-2.443-5.394
				c-1.41-1.418-3.382-1.959-5.883-1.63c-0.874,0.212-1.775,0.348-2.697,0.404c-0.92,0.057-1.836,0.133-2.7,0.245v-39.69h4.101
				c2.49,0,4.34-0.847,5.544-2.536c1.203-1.688,1.796-3.619,1.796-5.798c0-2.181-0.593-4.109-1.796-5.802
				c-1.204-1.687-3.054-2.532-5.544-2.532h-58.156c-2.505,0-4.364,0.846-5.558,2.532c-1.193,1.693-1.799,3.623-1.799,5.802
				c0,2.18,0.606,4.111,1.799,5.798c1.194,1.689,3.053,2.536,5.558,2.536h4.89v41.165h-5.873c-2.509,0-4.36,0.842-5.553,2.528
				c-1.198,1.69-1.814,3.622-1.814,5.797c0,2.18,0.616,4.116,1.814,5.802c1.193,1.691,3.044,2.527,5.553,2.527
				c6.745,0,12.891,0,18.463,0C-845.14,294.173-839.877,294.093-834.93,293.932z M-844.82,236.353h12.258v40.836
				c-2.072,0.216-4.102,0.329-6.122,0.329c-2.012,0-4.061,0-6.136,0V236.353z"/>
			<path fill="#EBA93C" d="M-762.151,306.761c1.953,1.295,4.133,1.953,6.53,1.953c2.509,0,4.735-0.658,6.704-1.953
				c1.959-1.311,2.932-3.379,2.932-6.211v-82.334c0-2.83-0.972-4.9-2.932-6.206c-1.969-1.306-4.196-1.956-6.704-1.956
				c-2.396,0-4.577,0.65-6.53,1.956c-1.964,1.306-2.942,3.376-2.942,6.206v82.334C-765.094,303.382-764.115,305.45-762.151,306.761z
				"/>
			<path fill="#E37E1F" d="M-611.883,260.032c2.524,0,4.314-0.809,5.417-2.443c1.076-1.634,1.626-3.542,1.626-5.719
				c0-2.178-0.551-4.082-1.626-5.713c-1.103-1.637-2.894-2.455-5.417-2.455h-43.763v16.331H-611.883L-611.883,260.032z"/>
			<path fill="#E37E1F" d="M-610.553,233.084c2.5,0,4.35-0.873,5.545-2.622c1.203-1.735,1.785-3.691,1.785-5.875
				c0-2.173-0.582-4.143-1.785-5.88c-1.194-1.738-3.045-2.613-5.545-2.613h-45.093v16.99H-610.553z"/>
			<path fill="#E37E1F" d="M-592.273,298.755h-63.374v65.396c0.535,0.057,1.081,0.105,1.621,0.105c2.721,0,5.163-0.705,7.277-2.115
				c2.138-1.426,3.186-3.656,3.186-6.705v-39.205h51.289c2.513,0,4.369-0.869,5.567-2.611c1.193-1.738,1.799-3.814,1.799-6.209
				c0-2.287-0.606-4.301-1.799-6.043C-587.905,299.624-589.76,298.755-592.273,298.755z"/>
			<path fill="#EBA93C" d="M-715.763,298.755c-2.509,0-4.345,0.869-5.553,2.611c-1.197,1.742-1.803,3.758-1.803,6.045
				c0,2.393,0.606,4.469,1.803,6.209c1.208,1.742,3.044,2.609,5.553,2.609h51.285v39.207c0,3.049,1.071,5.279,3.204,6.705
				c1.677,1.121,3.566,1.775,5.628,2.01v-65.396H-715.763z"/>
			<path fill="#E37E1F" d="M-602.558,285.194c1.188-1.742,1.805-3.7,1.805-5.887c0-2.178-0.616-4.139-1.805-5.872
				c-1.203-1.742-3.063-2.621-5.554-2.621h-47.535v16.993h47.535C-605.621,287.807-603.76,286.934-602.558,285.194z"/>
			<path fill="#EBA93C" d="M-682.435,270.815c-1.635,0-2.452-0.812-2.452-2.447v-8.334h29.24v-16.331h-29.24v-8.167
				c0-1.637,0.817-2.452,2.452-2.452h26.789v-16.99h-35.78c-5.219,0-8.853,0.98-10.854,2.938c-2.01,1.959-3.035,5.5-3.035,10.617
				v44.596c0,5.12,1.024,8.662,3.035,10.62c2.001,1.966,5.634,2.942,10.854,2.942h35.78v-16.993L-682.435,270.815L-682.435,270.815z
				"/>
			<path fill="#E37E1F" d="M-516.473,259.223h9.217c0.06-1.907,0.108-3.908,0.108-6.045v-17.32c0-5.117-1.014-8.652-3.024-10.621
				c-2.021-1.954-5.639-2.942-10.872-2.942h-39.042c-2.51,0-4.359,0.88-5.563,2.619c-1.179,1.743-1.786,3.871-1.786,6.376
				c0,2.393,0.606,4.461,1.786,6.198c1.203,1.746,3.055,2.62,5.563,2.62h29.082c2.498,0,3.739,1.247,3.739,3.757v8.656
				c0,3.7-0.075,6.896-0.231,9.56c-0.152,2.663-0.633,5.14-1.394,7.433c-0.759,2.282-1.956,4.519-3.595,6.695
				c-1.62,2.184-3.856,4.519-6.68,7.023c-2.843,2.509-6.414,5.328-10.717,8.492c-4.299,3.164-9.546,6.866-15.766,11.112
				c-1.18,0.766-2.04,1.691-2.529,2.777c-0.493,1.088-0.741,2.254-0.741,3.514c0,1.25,0.226,2.48,0.663,3.668
				c0.437,1.199,0.982,2.287,1.64,3.271c1.414,1.957,3.363,3.293,5.877,3.996c2.504,0.715,4.836,0.311,7.033-1.221
				c7.189-5.113,13.325-9.58,18.45-13.395c5.116-3.811,9.387-7.325,12.816-10.54c3.439-3.207,6.168-6.257,8.18-9.146
				c1.967-2.806,3.438-5.784,4.474-8.903h-6.687v-17.637H-516.473z"/>
			<path fill="#E37E1F" d="M-474.317,213.641c-1.97-1.305-4.146-1.955-6.54-1.955c-2.513,0-4.736,0.65-6.69,1.955
				c-1.964,1.31-2.945,3.377-2.945,6.21v39.372h-16.764c-0.079,2.547-0.211,4.901-0.39,7.02c-0.334,3.707-0.995,7.165-2.057,10.369
				c-0.024,0.09-0.057,0.164-0.084,0.248h19.294v60.936c0,2.826,0.981,4.9,2.946,6.205c1.954,1.313,4.177,1.959,6.69,1.959
				c2.395,0,4.57-0.646,6.54-1.959c1.953-1.305,2.95-3.379,2.95-6.205V219.852C-471.366,217.019-472.363,214.951-474.317,213.641z"
				/>
			<path fill="#E37E1F" d="M-443.452,212.01c-1.953-1.305-4.189-1.956-6.693-1.956c-2.511,0-4.732,0.651-6.705,1.956
				c-1.951,1.306-2.933,3.376-2.933,6.207v126.438c0,2.834,0.981,4.9,2.933,6.213c1.973,1.295,4.194,1.955,6.705,1.955
				c2.504,0,4.74-0.66,6.693-1.955c1.964-1.313,2.934-3.379,2.934-6.213V218.217C-440.518,215.387-441.488,213.316-443.452,212.01z"
				/>
			<path fill="#E37E1F" d="M-507.646,266.243c0.18-2.118,0.312-4.473,0.39-7.02h-9.217v17.637h6.686
				c0.027-0.084,0.061-0.158,0.083-0.248C-508.641,273.408-507.98,269.95-507.646,266.243z"/>
			<path fill="#E37E1F" d="M-334.323,295.486c-7.979,1.089-16.162,1.878-24.596,2.367c-8.432,0.488-17.272,0.738-26.538,0.738
				c-2.504,0-3.77-1.254-3.77-3.763v-52.274c0-2.501,1.266-3.754,3.77-3.754h40.188c2.489,0,4.349-0.871,5.535-2.614
				c1.221-1.738,1.813-3.808,1.813-6.208c0-2.502-0.593-4.621-1.813-6.364c-1.187-1.748-3.046-2.621-5.535-2.621h-50.975
				c-5.233,0-8.845,0.977-10.855,2.945c-2.031,1.958-3.026,5.499-3.026,10.62v68.28c0,5.117,0.995,8.658,3.026,10.617
				c2.011,1.955,5.623,2.939,10.855,2.939c8.053,0,15.336-0.078,21.818-0.246c6.474-0.16,12.331-0.41,17.542-0.738
				c5.253-0.326,9.898-0.68,13.982-1.057c4.079-0.381,7.808-0.789,11.183-1.23c2.394-0.326,4.022-1.434,4.897-3.348
				c0.881-1.906,1.198-4.107,0.984-6.611c-0.213-2.389-1.072-4.355-2.519-5.884C-329.842,295.756-331.823,295.155-334.323,295.486z"
				/>
			<path fill="#E37E1F" d="M-294.719,212.172c-2.132-1.414-4.491-2.118-7.098-2.118c-2.729,0-5.153,0.705-7.277,2.118
				c-2.118,1.419-3.186,3.652-3.186,6.698v39.043h-28.575c-2.515,0-4.368,0.87-5.562,2.616c-1.198,1.74-1.805,3.872-1.805,6.367
				c0,2.396,0.606,4.469,1.805,6.206c1.193,1.748,3.046,2.611,5.562,2.611h28.575v68.288c0,3.051,1.066,5.285,3.186,6.695
				c2.124,1.42,4.548,2.127,7.277,2.127c2.606,0,4.966-0.707,7.098-2.127c2.133-1.41,3.183-3.645,3.183-6.695V218.87
				C-291.537,215.824-292.587,213.591-294.719,212.172z"/>
		</g>
	</g>
	<text transform="matrix(1 0 0 1 -524.7043 197.9023)" fill="#EBA93C" font-family="'NanumSquareRoundR'" font-size="22.1854">반려동물과 함께하는 세상</text>
</g>
<path fill="#EBA93C" d="M41.802,238.535c0-2.847,0.781-5.373,2.35-7.583c1.564-2.206,3.984-3.312,7.262-3.312h76.042
	c3.274,0,5.694,1.106,7.262,3.312c1.565,2.21,2.35,4.736,2.35,7.583c0,2.85-0.785,5.376-2.35,7.583
	c-1.568,2.209-3.988,3.311-7.262,3.311h-5.34v51.906c1.138-0.141,2.313-0.249,3.525-0.322c1.208-0.068,2.382-0.247,3.524-0.534
	c3.274-0.427,5.837,0.287,7.69,2.138c1.849,1.853,2.916,4.2,3.204,7.048c0.284,2.851-0.213,5.555-1.495,8.118
	s-3.348,3.987-6.194,4.271c-6.408,0.713-12.639,1.281-18.69,1.709c-6.055,0.426-12.319,0.747-18.797,0.961
	c-6.482,0.213-13.35,0.32-20.613,0.32c-7.262,0-15.309,0-24.137,0c-3.278,0-5.698-1.1-7.262-3.312
	c-1.569-2.206-2.35-4.732-2.35-7.582c0-2.846,0.781-5.373,2.35-7.584c1.564-2.206,3.984-3.311,7.262-3.311h7.689v-53.827h-6.408
	c-3.277,0-5.697-1.102-7.262-3.311C42.582,243.912,41.802,241.385,41.802,238.535z M155.651,347.259
	c0,6.406,1.458,11.57,4.378,15.484c2.917,3.919,7.156,7.301,12.709,10.146c6.121,3.135,12.032,6.054,17.729,8.758
	c5.693,2.703,11.817,5.48,18.369,8.33c2.99,1.282,4.77,3.451,5.34,6.517c0.567,3.06,0.214,5.873-1.068,8.437
	c-1.425,2.848-3.524,5.019-6.301,6.514c-2.777,1.496-5.875,1.459-9.292-0.104c-5.98-2.425-11.428-4.843-16.34-7.265
	c-4.913-2.422-9.862-4.912-14.846-7.476c-4.416-2.278-8.083-4.345-11-6.192c-2.92-1.854-5.27-3.562-7.048-5.128
	c-1.782-1.568-3.134-3.062-4.059-4.485c-0.928-1.422-1.602-2.777-2.029-4.059h-0.213c-0.714,2.85-2.744,5.839-6.088,8.97
	c-3.347,3.133-9.435,6.977-18.263,11.536c-4.986,2.562-9.932,5.053-14.845,7.476c-4.913,2.42-10.359,4.839-16.34,7.263
	c-3.417,1.565-6.515,1.603-9.292,0.107c-2.777-1.496-4.88-3.669-6.301-6.515c-1.282-2.851-1.639-5.842-1.068-8.973
	c0.568-3.134,2.35-5.34,5.34-6.622c6.549-2.85,12.673-5.627,18.371-8.33c5.693-2.704,11.604-5.623,17.729-8.758
	c5.554-2.846,9.789-6.228,12.709-10.146c2.917-3.914,4.379-9.078,4.379-15.484v-4.701c0-3.843,1.388-6.69,4.165-8.544
	c2.777-1.848,5.945-2.776,9.506-2.776c3.558,0,6.729,0.929,9.505,2.776c2.777,1.854,4.166,4.701,4.166,8.544V347.259z
	 M81.959,303.256c2.703,0,5.373,0,8.01,0c2.633,0,5.303-0.141,8.01-0.427v-53.4h-16.02V303.256z M149.243,285.1h-9.826
	c-3.277,0-5.697-1.138-7.262-3.416c-1.569-2.278-2.35-4.984-2.35-8.118c0-3.13,0.781-5.837,2.35-8.118
	c1.565-2.274,3.985-3.417,7.262-3.417h9.826v-35.243c0-3.702,1.281-6.41,3.845-8.118c2.563-1.708,5.41-2.564,8.544-2.564
	c3.131,0,5.981,0.855,8.544,2.564c2.563,1.708,3.845,4.416,3.845,8.118v86.936c0,3.703-1.281,6.406-3.845,8.116
	c-2.563,1.71-5.413,2.562-8.544,2.562c-3.134,0-5.98-0.852-8.544-2.562s-3.845-4.413-3.845-8.116V285.1z M186.196,225.719
	c0-3.701,1.282-6.409,3.844-8.118c2.564-1.708,5.411-2.563,8.545-2.563c3.274,0,6.194,0.855,8.758,2.563
	c2.563,1.708,3.844,4.417,3.844,8.118v107.655c0,3.703-1.282,6.407-3.844,8.117c-2.563,1.708-5.484,2.564-8.758,2.564
	c-3.134,0-5.981-0.856-8.545-2.564c-2.563-1.71-3.844-4.414-3.844-8.117V225.719z"/>
<path fill="#E37E1F" d="M443.581,254.341c-3.279,0-5.697-1.138-7.263-3.417c-1.569-2.277-2.35-4.982-2.35-8.117
	c0-3.274,0.78-6.051,2.35-8.331c1.565-2.275,3.983-3.416,7.263-3.416h51.05c6.836,0,11.568,1.281,14.205,3.844
	c2.633,2.563,3.951,7.192,3.951,13.884v22.643c0,6.551-0.213,12.247-0.641,17.088c-0.427,4.842-1.319,9.364-2.67,13.562
	c-1.354,4.201-3.347,8.191-5.98,11.964c-2.637,3.774-6.195,7.761-10.68,11.96c-4.486,4.203-10.077,8.794-16.768,13.776
	c-6.696,4.987-14.74,10.825-24.138,17.517c-2.851,1.994-5.911,2.529-9.186,1.603c-3.277-0.927-5.84-2.671-7.688-5.235
	c-0.854-1.281-1.568-2.703-2.136-4.271c-0.571-1.564-0.854-3.167-0.854-4.807c0-1.635,0.32-3.166,0.961-4.591
	c0.641-1.421,1.741-2.634,3.311-3.631c8.116-5.555,14.984-10.393,20.612-14.525c5.623-4.13,10.286-7.829,13.99-11.107
	c3.702-3.274,6.623-6.334,8.759-9.185c2.136-2.846,3.701-5.768,4.698-8.757c0.995-2.991,1.603-6.229,1.815-9.721
	c0.213-3.487,0.322-7.653,0.322-12.496v-11.32c0-3.274-1.64-4.913-4.915-4.913H443.581z M500.612,279.333h33.962v-51.477
	c0-3.702,1.282-6.409,3.845-8.118c2.563-1.708,5.481-2.563,8.758-2.563c3.132,0,5.981,0.854,8.545,2.563
	c2.563,1.709,3.844,4.416,3.844,8.118v154.221c0,3.701-1.281,6.406-3.844,8.117c-2.563,1.708-5.413,2.562-8.545,2.562
	c-3.276,0-6.194-0.854-8.758-2.562c-2.563-1.711-3.845-4.416-3.845-8.117v-79.673h-33.962V279.333z M574.732,225.719
	c0-3.701,1.281-6.409,3.844-8.118c2.563-1.708,5.48-2.563,8.759-2.563c3.274,0,6.193,0.855,8.757,2.563s3.845,4.417,3.845,8.118
	v165.328c0,3.701-1.281,6.408-3.845,8.116c-2.563,1.709-5.482,2.564-8.757,2.564c-3.278,0-6.195-0.855-8.759-2.564
	c-2.563-1.708-3.844-4.415-3.844-8.116V225.719z"/>
<path fill="#E37E1F" d="M666.578,252.632c-3.278,0-4.914,1.639-4.914,4.914v68.353c0,3.276,1.636,4.911,4.914,4.911
	c12.101,0,23.672-0.32,34.71-0.961c11.034-0.642,21.751-1.672,32.147-3.097c3.273-0.427,5.873,0.356,7.796,2.35
	c1.923,1.995,3.023,4.559,3.312,7.688c0.283,3.279-0.145,6.161-1.282,8.651c-1.142,2.492-3.277,3.951-6.408,4.38
	c-4.416,0.57-9.293,1.103-14.631,1.601c-5.342,0.502-11.429,0.961-18.264,1.39c-6.835,0.426-14.491,0.747-22.962,0.96
	c-8.474,0.214-17.979,0.321-28.516,0.321c-6.836,0-11.572-1.281-14.205-3.845c-2.637-2.563-3.951-7.189-3.951-13.884v-89.287
	c0-6.691,1.314-11.321,3.951-13.884c2.633-2.563,7.369-3.844,14.205-3.844h66.644c3.274,0,5.692,1.141,7.262,3.417
	c1.565,2.279,2.351,5.056,2.351,8.331c0,3.135-0.785,5.84-2.351,8.118c-1.569,2.279-3.987,3.417-7.262,3.417H666.578z
	 M724.89,300.907c-3.277,0-5.697-1.139-7.262-3.419c-1.568-2.274-2.351-4.982-2.351-8.117c0-3.274,0.782-6.049,2.351-8.331
	c1.564-2.275,3.984-3.417,7.262-3.417h37.381v-51.05c0-3.984,1.388-6.905,4.165-8.757c2.776-1.849,5.944-2.777,9.506-2.777
	c3.417,0,6.514,0.929,9.291,2.777c2.776,1.853,4.165,4.773,4.165,8.757v163.621c0,3.982-1.389,6.904-4.165,8.757
	c-2.777,1.849-5.874,2.777-9.291,2.777c-3.562,0-6.729-0.929-9.506-2.777c-2.777-1.853-4.165-4.774-4.165-8.757v-89.286H724.89z"/>
<g>
	<path fill="#E37E1F" d="M331.687,157.954c0-1.134-0.006-2.277-0.017-3.414c-0.02-2.248-0.02-4.491-0.026-6.722
		c1.887-0.084,1.722,0.354,1.722-1.776c0-0.5,0.042-0.994,0-1.486c-0.397-3.3,0.42-6.276,2.129-9.12
		c1.204-2.027,1.063-2.073-0.99-3.149c-0.73-0.37-1.027-0.26-1.456,0.448c-2.474,3.934-3.646,8.151-3.063,12.806
		c0.073,0.733,0.018,1.486,0.018,2.221c-3.349,0.178-3.349,0.178-4.616-2.823c-1.188-2.746-2.341-5.493-3.56-8.226
		c-0.235-0.561-0.167-0.842,0.383-1.168c3.516-2.161,7.02-4.387,10.546-6.572c1.583-0.974,3.329-1.444,5.211-1.444
		c5.384,0,10.75,0,16.134,0c1.862,0,3.626,0.47,5.205,1.444c3.527,2.177,7.055,4.402,10.559,6.568
		c0.557,0.331,0.612,0.628,0.37,1.172c-1.546,3.473-3.02,6.958-4.493,10.447c-0.21,0.444-0.408,0.668-0.929,0.641
		c-0.904-0.039-1.819-0.032-2.729-0.039c0-1.097-0.105-2.188,0-3.273c0.428-3.814-0.451-7.258-2.438-10.529
		c-1.268-2.051-1.107-2.109-3.286-1.059c-0.736,0.348-0.877,0.67-0.44,1.326c2.396,3.592,3.212,7.533,2.822,11.813
		c-0.204,2.11-0.204,1.692,1.676,1.776c-0.022,3.364-0.035,6.748-0.073,10.118C350.805,157.942,341.249,157.942,331.687,157.954z
		 M343.501,146.14c-0.173,2.117-1.459,3.337-3.565,3.353c-0.846,0-1.707,0.024-2.511-0.009c-0.706-0.025-0.78,0.447-0.669,0.896
		c0.235,0.826-0.669,2.254,0.569,2.404c2.611,0.331,5.286,0.282,7.414-1.707c0.259-0.248,0.508-0.374,0.811-0.065
		c2.111,2.03,4.748,1.943,7.404,1.854c1.069-0.038,0.735-0.869,0.623-1.3c-0.161-0.704,0.768-1.825-0.623-2.048
		c-0.813-0.137-1.684-0.024-2.526-0.024c-2.1-0.016-3.392-1.238-3.529-3.353c0.855-0.075,1.579-0.482,1.63-1.354
		c0.01-1.138,0.48-2.42-0.571-3.396c-0.321-0.293-0.744-0.36-1.181-0.354c-0.688,0.016-1.351,0-2.018,0
		c-2.73,0-2.976,0.222-2.952,3.011c0,0.035,0,0.064,0,0.111C341.83,145.446,342.177,145.854,343.501,146.14z M338.344,139.346
		c1.764,0,1.764,0,1.764-1.322c0-2.043,0-2.043-1.373-2.043c-1.999,0-1.999,0-1.999,1.434
		C336.737,139.346,336.737,139.346,338.344,139.346z M352.041,135.98c-1.793,0-1.793,0-1.793,1.333c0,2.032,0,2.032,1.398,2.032
		c1.969,0,1.969,0,1.969-1.438C353.615,135.98,353.615,135.98,352.041,135.98z"/>
	<path fill="#E37E1F" d="M387.416,224.656c0-3.802,0.012-7.592,0-11.399c-0.043-5.482-1.125-10.737-3.341-15.758
		c-0.175-0.422-0.368-0.844-0.175-1.315c1.386-2.896,2.5-5.893,3.033-9.055c0.645-3.973,0.705-7.931-1.374-11.597
		c-0.367-0.628-0.409-1.132-0.163-1.847c1.363-3.744,0.255-7.828-2.821-10.384c-0.532-0.441-0.793-0.889-0.854-1.575
		c-0.353-3.316-3.436-5.854-6.61-5.438c-1.548,0.202-3.006,0.821-4.516,1.284c5.352,8.22,6.324,17.045,4.156,26.362
		c-0.427-0.065-0.594-0.436-0.866-0.714c-3.081-3.046-6.082-6.147-9.185-9.14c-2.696-2.596-4.224-5.644-4.356-9.388
		c-9.542,0-19.097-0.017-28.659-0.017c0,14.279,0,28.555-0.007,42.835c0,2.813-0.01,5.631,0.007,8.446
		c0,0.662-0.044,1.008-0.885,1.179c-2.723,0.577-4.207,2.565-4.207,5.381c0,0.979,0,1.978,0.012,2.954c2.81,0,5.619,0,8.447,0
		c1.126,0,2.247,0,3.36,0c3.961,0,7.896,0,11.834,0c1.126,0,2.264,0,3.367,0c11.052,0.021,22.092,0.021,33.145,0.049
		C387.489,225.518,387.416,225.129,387.416,224.656z"/>
	<path fill="#EBA93C" d="M331.687,157.954c0-1.134-0.006-2.277-0.017-3.414c-2.761,0.796-5.15,2.115-6.562,4.744
		c-0.196,0.356-0.508,0.344-0.822,0.344c-2.395,0-4.782-0.015-7.174,0.009c-0.431,0-0.692-0.113-0.926-0.514
		c-1.25-2.125-3.107-3.448-5.447-4.246c-0.99-0.336-1.04-0.1-1.04,0.779c0.038,6.793,0.012,13.577,0.012,20.375
		c0,2.288-0.792,4.216-2.662,5.592c-3.563,2.638-7.586,4.657-10.854,8.082c0-1.459,0.063-2.682,0-3.899
		c-0.061-1.724,0.421-3.249,1.412-4.653c0.768-1.09,1.498-2.208,2.227-3.331c2.563-3.811,3.635-7.967,2.921-12.525
		c-0.81-5.082-3.446-9.008-7.642-11.893c-1.628-1.13-4.017-0.617-5.083,0.947c-1.112,1.599-0.704,3.484,1.016,4.797
		c0.259,0.184,0.52,0.378,0.767,0.565c4.716,3.577,5.744,9.581,2.525,14.527c-1.002,1.507-1.98,3.007-2.995,4.481
		c-1.313,1.916-1.931,4.022-1.917,6.353c0.034,7.349,0.017,14.697,0.017,22.053c0,5.803,0.017,11.605-0.017,17.406
		c-0.015,0.816,0.208,1.015,1.007,0.986c1.651-0.049,3.368-0.006,5.044-0.01c6.444-0.019,12.897-0.023,19.315-0.039
		c1.119,0,2.221,0,3.347,0c1.151,0,2.277,0,3.404,0c1.133,0,2.241,0,3.368,0c0.559,0,1.132,0,1.695,0
		c-0.011-0.975-0.011-1.974-0.011-2.954c0-2.816,1.484-4.803,4.207-5.381c0.841-0.17,0.884-0.517,0.884-1.179
		c-0.017-2.814-0.006-5.632-0.006-8.445c0.006-14.281,0.006-28.557,0.006-42.836C331.687,162.438,331.687,160.19,331.687,157.954z
		 M316.499,164.693c1.66,0,1.66,0,1.66,1.934c0,1.444,0,1.444-2.061,1.443c-1.313,0-1.313,0-1.313-2.093
		C314.784,164.693,314.784,164.693,316.499,164.693z M324.973,168.07c-1.757,0-1.757,0-1.745-2.007c0-1.37,0-1.37,2.042-1.37
		c1.326,0,1.326,0,1.326,2.053C326.594,168.07,326.594,168.07,324.973,168.07z"/>
</g>
<g>
	<path fill="none" d="M285.731,248.36v10.681h40.75v-13.884h-37.545C286.8,245.157,285.731,246.224,285.731,248.36z"/>
	<path fill="none" d="M285.731,291.295c0,2.135,1.068,3.204,3.205,3.204h37.545v-14.098h-40.75V291.295z"/>
	<path fill="#EBA93C" d="M245.361,331.024c-3.277,0-5.697,1.142-7.262,3.418c-1.568,2.279-2.35,4.912-2.35,7.902
		c0,3.135,0.781,5.84,2.35,8.117c1.565,2.279,3.985,3.419,7.262,3.419h67.071v51.263c0,3.984,1.389,6.906,4.166,8.76
		c2.777,1.848,5.944,2.774,9.505,2.774c0.127,0,0.251-0.01,0.378-0.012v-85.642H245.361z"/>
	<path fill="#E37E1F" d="M381.211,280.401c3.274,0,5.624-1.068,7.049-3.204c1.422-2.137,2.136-4.626,2.136-7.476
		c0-2.847-0.714-5.341-2.136-7.477c-1.425-2.136-3.774-3.204-7.049-3.204h-54.73v21.36H381.211z"/>
	<path fill="#E37E1F" d="M382.921,245.157c3.273,0,5.694-1.139,7.262-3.418c1.564-2.276,2.349-4.839,2.349-7.689
		c0-2.848-0.785-5.411-2.349-7.691c-1.568-2.275-3.989-3.417-7.262-3.417h-56.44v22.215H382.921z"/>
	<path fill="#E37E1F" d="M414.105,334.442c-1.568-2.276-3.988-3.418-7.262-3.418h-80.363v85.642c3.403-0.064,6.45-0.981,9.127-2.763
		c2.777-1.854,4.165-4.775,4.165-8.76v-51.263h67.071c3.273,0,5.693-1.14,7.262-3.419c1.565-2.277,2.351-4.982,2.351-8.117
		C416.456,339.354,415.671,336.722,414.105,334.442z"/>
	<path fill="#E37E1F" d="M393.387,313.294c1.565-2.274,2.349-4.838,2.349-7.688c0-2.849-0.784-5.409-2.349-7.691
		c-1.569-2.274-3.988-3.416-7.263-3.416h-59.644v22.215h59.644C389.399,316.714,391.818,315.576,393.387,313.294z"/>
	<path fill="#EBA93C" d="M288.936,294.499c-2.136,0-3.205-1.068-3.205-3.204v-10.895h40.75v-21.36h-40.75V248.36
		c0-2.136,1.068-3.203,3.205-3.203h37.545v-22.215h-49.293c-6.835,0-11.571,1.282-14.204,3.846
		c-2.637,2.562-3.952,7.19-3.952,13.883v58.313c0,6.696,1.314,11.32,3.952,13.885c2.633,2.563,7.369,3.846,14.204,3.846h49.293
		v-22.215H288.936z"/>
</g>
<g>
	<path fill="#EBA93C" d="M533.191,185.274c0.313,0,0.596,0.083,0.851,0.247c0.255,0.165,0.383,0.428,0.383,0.789v2.983h5.67v-2.983
		c0-0.361,0.123-0.625,0.369-0.789c0.248-0.164,0.526-0.247,0.839-0.247s0.597,0.083,0.851,0.247
		c0.255,0.165,0.382,0.428,0.382,0.789v8.481c0,0.707-0.135,1.192-0.406,1.455c-0.271,0.264-0.769,0.395-1.491,0.395h-6.756
		c-0.724,0-1.221-0.131-1.491-0.395c-0.271-0.262-0.407-0.748-0.407-1.455v-8.481c0-0.361,0.123-0.625,0.37-0.789
		C532.599,185.356,532.88,185.274,533.191,185.274z M534.425,194.076c0,0.181,0.036,0.313,0.11,0.395
		c0.074,0.083,0.21,0.123,0.407,0.123h4.635c0.346,0,0.518-0.172,0.518-0.518v-2.737h-5.67V194.076z M535.78,198.81
		c0.312,0,0.596,0.082,0.851,0.246c0.254,0.165,0.382,0.428,0.382,0.79v4.018c0,0.181,0.037,0.309,0.111,0.382
		c0.074,0.074,0.21,0.111,0.407,0.111h10.848c0.312,0,0.538,0.106,0.678,0.32c0.139,0.213,0.21,0.468,0.21,0.764
		c0,0.279-0.071,0.526-0.21,0.739c-0.14,0.214-0.366,0.321-0.678,0.321h-11.958c-0.723,0-1.22-0.132-1.491-0.395
		c-0.271-0.264-0.406-0.748-0.406-1.455v-4.808c0-0.362,0.127-0.625,0.382-0.79C535.159,198.892,535.451,198.81,535.78,198.81z
		 M547.441,184.066c0.329,0,0.617,0.082,0.863,0.246c0.246,0.165,0.37,0.428,0.37,0.789v5.276h2.712
		c0.329,0,0.563,0.107,0.702,0.321c0.141,0.213,0.21,0.46,0.21,0.739c0,0.313-0.069,0.571-0.21,0.777
		c-0.14,0.206-0.373,0.308-0.702,0.308h-2.712v7.174c0,0.362-0.124,0.625-0.37,0.789c-0.246,0.165-0.534,0.247-0.863,0.247
		c-0.328,0-0.616-0.082-0.862-0.247c-0.246-0.164-0.37-0.427-0.37-0.789v-14.596c0-0.361,0.124-0.624,0.37-0.789
		C546.825,184.148,547.113,184.066,547.441,184.066z"/>
	<path fill="#EBA93C" d="M564.12,185.989c0.271,0.263,0.407,0.748,0.407,1.455v4.585c0,0.707-0.136,1.192-0.407,1.455
		c-0.271,0.263-0.769,0.395-1.492,0.395h-4.832c-0.197,0-0.333,0.037-0.406,0.11c-0.073,0.074-0.111,0.201-0.111,0.382v3.279
		c0,0.181,0.038,0.308,0.111,0.382s0.209,0.111,0.406,0.111c1.446,0,2.885-0.024,4.314-0.074c1.431-0.049,2.754-0.139,3.97-0.271
		c0.279-0.032,0.502,0.037,0.665,0.209c0.165,0.173,0.264,0.399,0.297,0.679c0.032,0.296-0.009,0.563-0.123,0.801
		c-0.116,0.238-0.313,0.374-0.592,0.407c-1.102,0.132-2.425,0.227-3.97,0.284c-1.545,0.058-3.419,0.086-5.622,0.086
		c-0.723,0-1.22-0.131-1.491-0.395c-0.271-0.263-0.406-0.748-0.406-1.455v-4.733c0-0.707,0.136-1.188,0.406-1.443
		c0.271-0.254,0.769-0.382,1.491-0.382h4.857c0.346,0,0.518-0.172,0.518-0.518v-3.131c0-0.329-0.172-0.493-0.518-0.493h-5.892
		c-0.313,0-0.535-0.107-0.666-0.321c-0.132-0.213-0.197-0.459-0.197-0.739s0.065-0.526,0.197-0.74
		c0.131-0.213,0.354-0.32,0.666-0.32h6.927C563.351,185.595,563.848,185.726,564.12,185.989z M571.085,184.066
		c0.329,0,0.617,0.082,0.863,0.246c0.246,0.165,0.369,0.428,0.369,0.789v19.231c0,0.361-0.123,0.625-0.369,0.789
		c-0.246,0.165-0.534,0.247-0.863,0.247c-0.296,0-0.571-0.082-0.826-0.247c-0.255-0.164-0.382-0.427-0.382-0.789v-8.407h-3.106
		c-0.296,0-0.509-0.102-0.641-0.309c-0.133-0.205-0.197-0.456-0.197-0.751c0-0.279,0.064-0.522,0.197-0.727
		c0.132-0.206,0.345-0.309,0.641-0.309h3.106v-3.032h-3.106c-0.296,0-0.509-0.103-0.641-0.309c-0.133-0.205-0.197-0.456-0.197-0.751
		c0-0.28,0.064-0.522,0.197-0.728c0.132-0.206,0.345-0.308,0.641-0.308h3.106v-3.6c0-0.361,0.127-0.624,0.382-0.789
		C570.513,184.148,570.789,184.066,571.085,184.066z"/>
	<path fill="#EBA93C" d="M587.579,195.111h8.308c0.279,0,0.489,0.104,0.629,0.309c0.139,0.206,0.21,0.448,0.21,0.727
		c0,0.28-0.071,0.522-0.21,0.728c-0.14,0.206-0.35,0.308-0.629,0.308h-19.033c-0.279,0-0.489-0.102-0.628-0.308
		c-0.141-0.205-0.21-0.448-0.21-0.728c0-0.279,0.069-0.521,0.21-0.727c0.139-0.205,0.349-0.309,0.628-0.309h8.309v-3.476h2.417
		V195.111z M586.371,198.735c2.383,0,4.236,0.345,5.559,1.036c1.323,0.69,1.985,1.759,1.985,3.205c0,1.463-0.662,2.535-1.985,3.217
		c-1.322,0.682-3.176,1.023-5.559,1.023c-2.384,0-4.238-0.341-5.561-1.023c-1.323-0.683-1.984-1.754-1.984-3.217
		c0-1.446,0.661-2.515,1.984-3.205C582.133,199.081,583.987,198.735,586.371,198.735z M593.582,185.138
		c0.14,0.206,0.209,0.448,0.209,0.727c0,0.28-0.069,0.519-0.209,0.716s-0.35,0.295-0.629,0.295h-11.095
		c-0.345,0-0.518,0.173-0.518,0.518v2.688c0,0.345,0.173,0.518,0.518,0.518H593.2c0.278,0,0.488,0.099,0.628,0.296
		s0.21,0.436,0.21,0.715s-0.07,0.522-0.21,0.727c-0.14,0.206-0.35,0.309-0.628,0.309h-12.45c-0.725,0-1.217-0.131-1.48-0.395
		c-0.263-0.263-0.395-0.748-0.395-1.455v-4.117c0-0.707,0.132-1.192,0.395-1.455c0.264-0.263,0.756-0.394,1.48-0.394h12.203
		C593.232,184.831,593.442,184.933,593.582,185.138z M586.371,200.708c-1.792,0-3.091,0.193-3.896,0.579
		c-0.806,0.387-1.208,0.949-1.208,1.689s0.402,1.303,1.208,1.688c0.805,0.386,2.104,0.58,3.896,0.58c1.79,0,3.089-0.193,3.895-0.58
		c0.806-0.386,1.208-0.949,1.208-1.688s-0.402-1.302-1.208-1.689C589.46,200.901,588.161,200.708,586.371,200.708z"/>
	<path fill="#EBA93C" d="M618.952,193.965c0.139,0.189,0.21,0.424,0.21,0.703c0,0.28-0.071,0.518-0.21,0.715
		c-0.14,0.197-0.35,0.296-0.629,0.296h-8.309v3.082h-2.416v-3.082h-8.31c-0.279,0-0.489-0.099-0.628-0.296
		c-0.14-0.197-0.21-0.435-0.21-0.715c0-0.279,0.07-0.513,0.21-0.703c0.139-0.189,0.349-0.283,0.628-0.283h19.034
		C618.602,193.682,618.812,193.776,618.952,193.965z M615.943,198.094c0.271,0.263,0.407,0.748,0.407,1.455v1.824
		c0,0.707-0.136,1.192-0.407,1.455c-0.271,0.263-0.768,0.395-1.49,0.395h-10.43c-0.263,0-0.395,0.123-0.395,0.37v1.01
		c0,0.247,0.132,0.37,0.395,0.37h12.056c0.28,0,0.484,0.099,0.617,0.296c0.132,0.197,0.197,0.419,0.197,0.666
		c0,0.263-0.065,0.489-0.197,0.678c-0.133,0.189-0.337,0.284-0.617,0.284h-12.943c-0.724,0-1.22-0.132-1.491-0.394
		c-0.271-0.264-0.407-0.749-0.407-1.455v-1.824c0-0.707,0.136-1.191,0.407-1.455s0.768-0.395,1.491-0.395h10.429
		c0.264,0,0.395-0.124,0.395-0.37v-0.987c0-0.262-0.131-0.394-0.395-0.394h-11.587c-0.28,0-0.481-0.095-0.604-0.284
		s-0.185-0.415-0.185-0.678c0-0.246,0.062-0.468,0.185-0.666s0.324-0.296,0.604-0.296h12.476
		C615.176,197.7,615.673,197.832,615.943,198.094z M614.427,184.583c0.723,0,1.221,0.132,1.491,0.395
		c0.271,0.264,0.407,0.748,0.407,1.455v3.673c0,0.707-0.136,1.192-0.407,1.455c-0.271,0.263-0.769,0.395-1.491,0.395h-11.242
		c-0.724,0-1.217-0.131-1.479-0.395c-0.263-0.263-0.395-0.748-0.395-1.455v-3.673c0-0.707,0.132-1.191,0.395-1.455
		c0.263-0.262,0.756-0.395,1.479-0.395H614.427z M604.269,186.581c-0.197,0-0.333,0.037-0.406,0.111
		c-0.074,0.074-0.111,0.209-0.111,0.407v2.342c0,0.197,0.037,0.333,0.111,0.406c0.073,0.074,0.209,0.111,0.406,0.111h9.073
		c0.197,0,0.333-0.037,0.407-0.111c0.073-0.073,0.111-0.209,0.111-0.406v-2.342c0-0.197-0.038-0.333-0.111-0.407
		c-0.074-0.074-0.21-0.111-0.407-0.111H604.269z"/>
	<path fill="#EBA93C" d="M626.286,192.35c0.313,0,0.592,0.083,0.838,0.246c0.247,0.165,0.37,0.419,0.37,0.764v5.893
		c1.101-0.033,2.206-0.074,3.315-0.124c1.11-0.049,2.239-0.132,3.391-0.246c0.279-0.033,0.493,0.041,0.641,0.222
		s0.238,0.419,0.271,0.715c0.034,0.279-0.011,0.526-0.135,0.739c-0.123,0.214-0.325,0.337-0.604,0.37
		c-1.891,0.181-3.904,0.304-6.04,0.37c-2.138,0.065-4.349,0.099-6.633,0.099c-0.296,0-0.515-0.107-0.653-0.321
		c-0.14-0.213-0.209-0.459-0.209-0.739c0-0.279,0.069-0.521,0.209-0.727c0.139-0.206,0.357-0.308,0.653-0.308h3.378v-5.942
		c0-0.345,0.123-0.599,0.369-0.764C625.693,192.433,625.973,192.35,626.286,192.35z M631.635,185.841
		c0.724,0,1.22,0.132,1.491,0.395c0.271,0.264,0.407,0.748,0.407,1.455v1.554c0,2.499-0.238,4.626-0.715,6.385
		c-0.082,0.28-0.255,0.485-0.518,0.616c-0.263,0.132-0.576,0.165-0.937,0.099c-0.313-0.065-0.56-0.197-0.74-0.395
		s-0.238-0.459-0.172-0.789c0.229-1.002,0.395-1.968,0.492-2.897c0.1-0.929,0.148-1.911,0.148-2.946v-0.813
		c0-0.346-0.172-0.518-0.518-0.518h-7.618c-0.297,0-0.515-0.102-0.653-0.308c-0.14-0.205-0.21-0.456-0.21-0.752
		c0-0.296,0.07-0.551,0.21-0.764c0.139-0.214,0.356-0.321,0.653-0.321H631.635z M637.602,184.066c0.329,0,0.616,0.082,0.863,0.246
		c0.246,0.165,0.369,0.419,0.369,0.764v7.175h2.392c0.328,0,0.563,0.103,0.703,0.308c0.139,0.206,0.209,0.457,0.209,0.752
		s-0.07,0.551-0.209,0.764c-0.14,0.214-0.375,0.321-0.703,0.321h-2.392v9.96c0,0.345-0.123,0.6-0.369,0.764
		c-0.247,0.165-0.534,0.247-0.863,0.247c-0.313,0-0.592-0.082-0.839-0.247c-0.246-0.164-0.369-0.419-0.369-0.764v-19.28
		c0-0.345,0.123-0.6,0.369-0.764C637.01,184.148,637.289,184.066,637.602,184.066z"/>
	<path fill="#EBA93C" d="M656.166,183.819c0.329,0,0.617,0.083,0.863,0.247c0.246,0.164,0.37,0.427,0.37,0.789v1.504h4.413
		c0.297,0,0.514,0.106,0.653,0.32s0.21,0.46,0.21,0.739c0,0.28-0.07,0.522-0.21,0.728s-0.356,0.308-0.653,0.308h-11.538
		c-0.296,0-0.514-0.102-0.653-0.308s-0.21-0.448-0.21-0.728c0-0.279,0.07-0.525,0.21-0.739s0.357-0.32,0.653-0.32h4.66v-1.504
		c0-0.362,0.127-0.625,0.382-0.789C655.57,183.902,655.854,183.819,656.166,183.819z M656.166,189.663
		c1.644,0,2.931,0.35,3.859,1.047c0.929,0.699,1.393,1.64,1.393,2.823c0,1.184-0.464,2.125-1.393,2.823
		c-0.929,0.698-2.216,1.047-3.859,1.047c-1.643,0-2.93-0.349-3.858-1.047c-0.929-0.699-1.393-1.64-1.393-2.823
		c0-1.183,0.464-2.124,1.393-2.823C653.236,190.012,654.523,189.663,656.166,189.663z M665.116,198.884
		c0.723,0,1.221,0.131,1.492,0.394c0.271,0.263,0.407,0.749,0.407,1.455v4.092c0,0.707-0.136,1.192-0.407,1.456
		c-0.271,0.262-0.77,0.394-1.492,0.394H654.76c-0.723,0-1.22-0.132-1.491-0.394c-0.271-0.264-0.406-0.749-0.406-1.456v-4.092
		c0-0.706,0.135-1.191,0.406-1.455c0.271-0.263,0.769-0.394,1.491-0.394H665.116z M656.166,191.586
		c-0.985,0-1.738,0.181-2.256,0.542c-0.518,0.362-0.776,0.831-0.776,1.405c0,0.576,0.259,1.044,0.776,1.406
		c0.518,0.361,1.271,0.542,2.256,0.542c1.003,0,1.76-0.181,2.269-0.542c0.51-0.362,0.765-0.83,0.765-1.406
		c0-0.575-0.255-1.043-0.765-1.405C657.926,191.767,657.169,191.586,656.166,191.586z M655.797,200.905
		c-0.197,0-0.333,0.037-0.406,0.11c-0.074,0.074-0.111,0.202-0.111,0.383v2.736c0,0.197,0.037,0.333,0.111,0.407
		c0.073,0.074,0.209,0.111,0.406,0.111h8.284c0.181,0,0.312-0.037,0.395-0.111c0.081-0.074,0.123-0.209,0.123-0.407v-2.736
		c0-0.329-0.172-0.493-0.518-0.493H655.797z M665.781,184.066c0.329,0,0.617,0.082,0.863,0.246c0.246,0.165,0.371,0.428,0.371,0.789
		v4.636h2.735c0.312,0,0.538,0.107,0.679,0.32c0.14,0.214,0.209,0.46,0.209,0.74c0,0.296-0.069,0.551-0.209,0.764
		c-0.141,0.213-0.367,0.32-0.679,0.32h-2.735v4.906c0,0.345-0.125,0.6-0.371,0.765c-0.246,0.164-0.534,0.246-0.863,0.246
		c-0.312,0-0.591-0.082-0.838-0.246c-0.247-0.165-0.37-0.419-0.37-0.765v-11.687c0-0.361,0.123-0.624,0.37-0.789
		C665.19,184.148,665.469,184.066,665.781,184.066z"/>
	<path fill="#EBA93C" d="M675.595,185.915c0.377,0,0.689,0.029,0.936,0.086c0.247,0.058,0.44,0.157,0.58,0.296
		c0.139,0.14,0.238,0.329,0.295,0.567c0.058,0.238,0.087,0.539,0.087,0.9v2.367c0,0.625-0.008,1.188-0.024,1.689
		c-0.018,0.501-0.066,0.97-0.147,1.405c-0.083,0.436-0.202,0.855-0.358,1.257c-0.156,0.403-0.37,0.831-0.641,1.282
		c-0.271,0.452-0.616,0.937-1.036,1.455c-0.418,0.518-0.924,1.105-1.516,1.763c-0.214,0.263-0.469,0.378-0.764,0.345
		c-0.297-0.032-0.56-0.156-0.789-0.37c-0.214-0.197-0.346-0.427-0.396-0.69c-0.049-0.262,0.033-0.518,0.247-0.764
		c0.789-0.871,1.396-1.602,1.824-2.194s0.739-1.146,0.937-1.664c0.197-0.518,0.313-1.052,0.346-1.603
		c0.032-0.55,0.049-1.22,0.049-2.009v-1.479c0-0.328-0.172-0.493-0.518-0.493h-1.503c-0.313,0-0.539-0.106-0.679-0.321
		c-0.14-0.213-0.21-0.46-0.21-0.739c0-0.296,0.07-0.551,0.21-0.765c0.14-0.213,0.365-0.32,0.679-0.32H675.595z M680.845,185.915
		c0.379,0,0.691,0.029,0.938,0.086c0.246,0.058,0.439,0.157,0.579,0.296c0.14,0.14,0.239,0.329,0.296,0.567
		c0.058,0.238,0.087,0.539,0.087,0.9v3.18c0,0.986-0.033,1.846-0.1,2.576c-0.065,0.732-0.233,1.451-0.505,2.158
		s-0.67,1.459-1.195,2.256c-0.526,0.797-1.242,1.755-2.146,2.873c-0.214,0.279-0.473,0.415-0.776,0.406
		c-0.305-0.008-0.572-0.11-0.802-0.308c-0.23-0.181-0.382-0.403-0.456-0.666c-0.073-0.263-0.012-0.525,0.186-0.789
		c0.822-1.019,1.467-1.887,1.936-2.601c0.468-0.715,0.82-1.376,1.06-1.985c0.238-0.608,0.387-1.22,0.443-1.837
		c0.058-0.616,0.087-1.343,0.087-2.182v-2.293c0-0.328-0.172-0.493-0.518-0.493h-1.011c-0.297,0-0.515-0.106-0.653-0.321
		c-0.14-0.213-0.21-0.46-0.21-0.739c0-0.296,0.07-0.551,0.21-0.765c0.139-0.213,0.356-0.32,0.653-0.32H680.845z M686.197,184.313
		c0.278,0,0.533,0.074,0.764,0.222c0.23,0.147,0.345,0.386,0.345,0.715v18.146c0,0.328-0.114,0.566-0.345,0.715
		c-0.23,0.148-0.485,0.222-0.764,0.222c-0.28,0-0.535-0.074-0.766-0.222c-0.23-0.148-0.345-0.387-0.345-0.715v-9.714h-3.402v-2.121
		h3.402v-6.312c0-0.329,0.114-0.567,0.345-0.715C685.662,184.387,685.917,184.313,686.197,184.313z M690.338,184.066
		c0.297,0,0.559,0.074,0.789,0.222s0.346,0.386,0.346,0.714v19.428c0,0.329-0.115,0.567-0.346,0.715s-0.492,0.222-0.789,0.222
		c-0.279,0-0.534-0.074-0.764-0.222c-0.23-0.148-0.346-0.386-0.346-0.715v-19.428c0-0.328,0.115-0.566,0.346-0.714
		C689.803,184.14,690.058,184.066,690.338,184.066z"/>
	<path fill="#EBA93C" d="M701.087,184.017c0.328,0,0.616,0.083,0.862,0.247c0.248,0.165,0.371,0.427,0.371,0.789v2.12h4.438
		c0.295,0,0.514,0.103,0.653,0.309s0.21,0.448,0.21,0.727c0,0.28-0.07,0.526-0.21,0.739c-0.14,0.214-0.358,0.321-0.653,0.321
		h-11.612c-0.296,0-0.514-0.107-0.653-0.321c-0.14-0.213-0.21-0.459-0.21-0.739c0-0.279,0.07-0.521,0.21-0.727
		s0.357-0.309,0.653-0.309h4.709v-2.12c0-0.362,0.127-0.625,0.382-0.789C700.491,184.099,700.774,184.017,701.087,184.017z
		 M701.087,190.87c0.822,0,1.562,0.12,2.219,0.358c0.658,0.238,1.212,0.571,1.665,0.999c0.451,0.427,0.801,0.936,1.047,1.528
		c0.247,0.592,0.37,1.25,0.37,1.973c0,0.724-0.123,1.381-0.37,1.972c-0.246,0.592-0.596,1.102-1.047,1.529
		c-0.453,0.428-1.007,0.761-1.665,0.999c-0.657,0.238-1.396,0.357-2.219,0.357c-0.821,0-1.562-0.119-2.219-0.357
		c-0.657-0.238-1.217-0.571-1.677-0.999c-0.46-0.427-0.81-0.937-1.048-1.529c-0.238-0.591-0.357-1.249-0.357-1.972
		c0-0.723,0.119-1.38,0.357-1.973c0.238-0.592,0.588-1.101,1.048-1.528s1.02-0.76,1.677-0.999
		C699.525,190.99,700.265,190.87,701.087,190.87z M701.087,192.868c-0.937,0-1.681,0.259-2.231,0.777
		c-0.551,0.518-0.825,1.212-0.825,2.083c0,0.854,0.274,1.545,0.825,2.071c0.551,0.526,1.295,0.79,2.231,0.79s1.681-0.263,2.231-0.79
		c0.55-0.525,0.825-1.216,0.825-2.071c0-0.871-0.275-1.565-0.825-2.083C702.767,193.126,702.023,192.868,701.087,192.868z
		 M710.653,184.066c0.328,0,0.616,0.082,0.862,0.246c0.246,0.165,0.371,0.428,0.371,0.789v6.657h2.712
		c0.328,0,0.562,0.103,0.702,0.308c0.14,0.206,0.209,0.456,0.209,0.752s-0.069,0.551-0.209,0.765
		c-0.141,0.213-0.374,0.32-0.702,0.32h-2.712v10.429c0,0.361-0.125,0.625-0.371,0.789c-0.246,0.165-0.534,0.247-0.862,0.247
		c-0.313,0-0.592-0.082-0.838-0.247c-0.248-0.164-0.371-0.427-0.371-0.789v-19.231c0-0.361,0.123-0.624,0.371-0.789
		C710.061,184.148,710.341,184.066,710.653,184.066z"/>
	<path fill="#EBA93C" d="M737.292,195.938c0.139,0.206,0.21,0.447,0.21,0.727s-0.071,0.526-0.21,0.739
		c-0.14,0.214-0.357,0.321-0.653,0.321h-18.984c-0.296,0-0.515-0.107-0.653-0.321c-0.14-0.213-0.21-0.459-0.21-0.739
		s0.07-0.521,0.21-0.727c0.139-0.206,0.357-0.309,0.653-0.309h18.984C736.934,195.629,737.152,195.732,737.292,195.938z
		 M720.835,199.598c0.329,0,0.616,0.083,0.862,0.247c0.247,0.164,0.37,0.427,0.37,0.789v3.354c0,0.345,0.173,0.517,0.519,0.517
		h11.661c0.296,0,0.514,0.103,0.653,0.309c0.139,0.205,0.21,0.448,0.21,0.727s-0.071,0.526-0.21,0.74
		c-0.14,0.213-0.357,0.32-0.653,0.32h-12.771c-0.724,0-1.217-0.132-1.479-0.395c-0.264-0.264-0.395-0.748-0.395-1.455v-4.118
		c0-0.361,0.123-0.625,0.369-0.789C720.218,199.681,720.506,199.598,720.835,199.598z M720.884,184.633
		c0.329,0,0.617,0.083,0.863,0.246c0.247,0.165,0.37,0.436,0.37,0.814v4.758c0,0.33,0.172,0.493,0.518,0.493h11.563
		c0.296,0,0.515,0.107,0.654,0.321c0.139,0.213,0.209,0.46,0.209,0.739s-0.07,0.522-0.209,0.727
		c-0.14,0.206-0.358,0.308-0.654,0.308h-12.672c-0.724,0-1.217-0.131-1.479-0.394c-0.263-0.263-0.395-0.748-0.395-1.455v-5.498
		c0-0.378,0.123-0.649,0.37-0.814C720.268,184.716,720.554,184.633,720.884,184.633z"/>
	<path fill="#EBA93C" d="M751.011,185.373c0.328,0,0.616,0.083,0.862,0.247c0.246,0.165,0.37,0.427,0.37,0.789v3.772
		c0,0.526,0.024,0.995,0.073,1.406c0.05,0.411,0.136,0.801,0.26,1.171c0.123,0.37,0.279,0.723,0.468,1.061
		c0.188,0.337,0.432,0.677,0.729,1.023c0.427,0.526,0.851,1.019,1.269,1.479c0.42,0.46,0.793,0.871,1.122,1.233
		c0.214,0.23,0.305,0.497,0.271,0.801s-0.164,0.555-0.395,0.752c-0.197,0.181-0.443,0.279-0.74,0.296
		c-0.295,0.017-0.559-0.091-0.789-0.321c-0.246-0.263-0.547-0.591-0.899-0.986c-0.354-0.395-0.719-0.813-1.098-1.257
		c-0.558-0.657-0.933-1.163-1.121-1.516c-0.189-0.353-0.309-0.662-0.357-0.924h-0.024c-0.05,0.279-0.17,0.604-0.357,0.974
		c-0.189,0.37-0.563,0.892-1.123,1.565c-0.377,0.428-0.76,0.859-1.146,1.294c-0.387,0.436-0.776,0.859-1.172,1.27
		c-0.229,0.231-0.501,0.333-0.813,0.309c-0.313-0.025-0.56-0.127-0.74-0.309c-0.23-0.23-0.361-0.497-0.394-0.801
		c-0.034-0.304,0.065-0.571,0.295-0.801c0.477-0.509,0.941-1.014,1.393-1.516c0.452-0.501,0.893-1.015,1.319-1.541
		c0.279-0.346,0.519-0.686,0.716-1.023c0.197-0.337,0.353-0.691,0.469-1.061c0.114-0.37,0.197-0.76,0.246-1.171
		s0.074-0.879,0.074-1.406v-3.772c0-0.362,0.127-0.625,0.382-0.789C750.415,185.455,750.699,185.373,751.011,185.373z
		 M759.123,184.313c0.278,0,0.538,0.078,0.776,0.234c0.237,0.156,0.357,0.398,0.357,0.727v18.096c0,0.329-0.12,0.571-0.357,0.728
		c-0.238,0.156-0.498,0.234-0.776,0.234c-0.297,0-0.563-0.078-0.802-0.234s-0.357-0.398-0.357-0.728v-10.577h-2.466
		c-0.295,0-0.514-0.102-0.653-0.308c-0.14-0.205-0.209-0.456-0.209-0.752s0.069-0.546,0.209-0.752
		c0.14-0.205,0.358-0.308,0.653-0.308h2.466v-5.399c0-0.329,0.119-0.571,0.357-0.727S758.826,184.313,759.123,184.313z
		 M763.535,184.066c0.297,0,0.564,0.078,0.802,0.234c0.238,0.156,0.358,0.399,0.358,0.727v19.379c0,0.328-0.12,0.57-0.358,0.727
		c-0.237,0.156-0.505,0.234-0.802,0.234c-0.279,0-0.538-0.078-0.775-0.234c-0.239-0.157-0.358-0.399-0.358-0.727v-19.379
		c0-0.328,0.119-0.571,0.358-0.727C762.997,184.145,763.256,184.066,763.535,184.066z"/>
	<path fill="#EBA93C" d="M774.556,184.806c0.328,0,0.621,0.082,0.875,0.247c0.255,0.165,0.382,0.428,0.382,0.789v2.269
		c0,0.789,0.128,1.467,0.384,2.034c0.254,0.567,0.668,1.097,1.244,1.59c0.575,0.478,1.118,0.913,1.627,1.307
		c0.509,0.395,0.971,0.74,1.382,1.036c0.278,0.197,0.422,0.44,0.431,0.728c0.008,0.288-0.078,0.546-0.259,0.776
		c-0.165,0.23-0.386,0.391-0.666,0.481c-0.279,0.09-0.559,0.029-0.838-0.186c-0.329-0.229-0.731-0.53-1.208-0.899
		s-0.979-0.769-1.504-1.195c-0.625-0.493-1.065-0.904-1.319-1.233c-0.255-0.329-0.416-0.617-0.48-0.863h-0.024
		c-0.066,0.279-0.238,0.591-0.518,0.937c-0.28,0.345-0.724,0.765-1.332,1.258c-0.525,0.427-1.039,0.838-1.541,1.232
		c-0.501,0.395-1.016,0.781-1.541,1.16c-0.279,0.197-0.563,0.25-0.851,0.16c-0.287-0.091-0.514-0.243-0.677-0.457
		c-0.165-0.229-0.248-0.497-0.248-0.801c0-0.304,0.148-0.563,0.445-0.776c0.574-0.428,1.133-0.847,1.676-1.258
		c0.542-0.41,1.101-0.854,1.677-1.331c0.574-0.493,0.99-1.023,1.244-1.59c0.255-0.567,0.382-1.253,0.382-2.059v-2.317
		c0-0.361,0.128-0.624,0.383-0.789S774.227,184.806,774.556,184.806z M778.427,197.798c2.252,0,3.99,0.391,5.214,1.171
		c1.226,0.781,1.838,1.944,1.838,3.489c0,1.544-0.612,2.708-1.838,3.489c-1.224,0.78-2.962,1.17-5.214,1.17s-3.99-0.391-5.214-1.17
		c-1.226-0.781-1.838-1.944-1.838-3.489c0-1.545,0.612-2.708,1.838-3.489C774.437,198.189,776.176,197.798,778.427,197.798z
		 M778.427,199.795c-1.627,0-2.803,0.243-3.525,0.728c-0.724,0.485-1.085,1.13-1.085,1.936c0,0.822,0.361,1.471,1.085,1.948
		c0.723,0.476,1.898,0.714,3.525,0.714s2.803-0.238,3.525-0.714c0.724-0.477,1.084-1.126,1.084-1.948s-0.36-1.471-1.084-1.948
		C781.23,200.034,780.054,199.795,778.427,199.795z M784.123,184.066c0.328,0,0.616,0.082,0.862,0.246
		c0.247,0.165,0.371,0.428,0.371,0.789v4.414h2.712c0.328,0,0.563,0.107,0.702,0.321s0.21,0.46,0.21,0.739
		c0,0.313-0.07,0.571-0.21,0.777s-0.374,0.308-0.702,0.308h-2.712v4.906c0,0.345-0.124,0.6-0.371,0.764
		c-0.246,0.165-0.534,0.247-0.862,0.247c-0.329,0-0.617-0.082-0.863-0.247c-0.246-0.164-0.369-0.419-0.369-0.764v-11.465
		c0-0.361,0.123-0.624,0.369-0.789C783.506,184.148,783.794,184.066,784.123,184.066z"/>
</g>
</svg>
