<?xml version="1.0" encoding="utf-8"?>
<!-- Generator: Adobe Illustrator 16.0.0, SVG Export Plug-In . SVG Version: 6.00 Build 0)  -->
<!DOCTYPE svg PUBLIC "-//W3C//DTD SVG 1.1//EN" "http://www.w3.org/Graphics/SVG/1.1/DTD/svg11.dtd">
<svg version="1.1" id="레이어_1" xmlns="http://www.w3.org/2000/svg" xmlns:xlink="http://www.w3.org/1999/xlink" x="0px"
	 y="0px" width="2383.939px" height="1683.78px" viewBox="0 0 2383.939 1683.78" enable-background="new 0 0 2383.939 1683.78"
	 xml:space="preserve">
<g>
	<g>
		<g>
			<path fill-rule="evenodd" clip-rule="evenodd" fill="#E37E1F" d="M1003.5,568.314c0-2.389-0.013-4.792-0.037-7.183
				c-0.04-4.729-0.04-9.451-0.055-14.146c3.973-0.177,3.623,0.742,3.623-3.738c0-1.05,0.09-2.091,0-3.127
				c-0.834-6.943,0.884-13.208,4.48-19.194c2.538-4.266,2.238-4.363-2.084-6.629c-1.537-0.776-2.162-0.549-3.063,0.943
				c-5.209,8.284-7.672,17.161-6.446,26.957c0.155,1.544,0.039,3.127,0.039,4.677c-7.047,0.372-7.047,0.372-9.718-5.945
				c-2.501-5.778-4.926-11.563-7.491-17.313c-0.495-1.186-0.351-1.772,0.808-2.461c7.398-4.547,14.772-9.229,22.197-13.833
				c3.334-2.046,7.008-3.037,10.967-3.037c11.334,0,22.628,0,33.961,0c3.919,0,7.632,0.991,10.953,3.037
				c7.425,4.585,14.852,9.267,22.225,13.826c1.172,0.697,1.288,1.323,0.779,2.469c-3.255,7.307-6.355,14.647-9.455,21.987
				c-0.443,0.938-0.86,1.407-1.956,1.35c-1.901-0.08-3.828-0.067-5.744-0.08c0-2.311-0.221-4.61,0-6.891
				c0.899-8.031-0.949-15.279-5.132-22.164c-2.67-4.318-2.331-4.44-6.916-2.227c-1.55,0.729-1.85,1.407-0.926,2.788
				c5.041,7.562,6.761,15.858,5.94,24.867c-0.43,4.44-0.43,3.562,3.528,3.738c-0.05,7.079-0.075,14.198-0.154,21.296
				C1043.739,568.289,1023.626,568.289,1003.5,568.314z M1028.368,543.449c-0.366,4.455-3.074,7.026-7.504,7.059
				c-1.783,0-3.595,0.052-5.287-0.019c-1.486-0.052-1.642,0.944-1.407,1.888c0.495,1.739-1.407,4.742,1.198,5.061
				c5.496,0.696,11.124,0.593,15.604-3.594c0.549-0.521,1.068-0.789,1.707-0.137c4.442,4.272,9.992,4.09,15.58,3.901
				c2.254-0.078,1.55-1.83,1.315-2.735c-0.339-1.485,1.615-3.843-1.315-4.313c-1.707-0.285-3.543-0.052-5.313-0.052
				c-4.417-0.033-7.14-2.604-7.427-7.059c1.797-0.157,3.322-1.011,3.427-2.848c0.026-2.396,1.016-5.093-1.198-7.15
				c-0.677-0.613-1.564-0.756-2.488-0.743c-1.447,0.032-2.84,0-4.247,0c-5.745,0-6.265,0.469-6.214,6.337c0,0.072,0,0.137,0,0.234
				C1024.851,541.989,1025.581,542.848,1028.368,543.449z M1017.516,529.151c3.712,0,3.712,0,3.712-2.787
				c0-4.298,0-4.298-2.891-4.298c-4.208,0-4.208,0-4.208,3.015C1014.129,529.151,1014.129,529.151,1017.516,529.151z
				 M1046.344,522.066c-3.778,0-3.778,0-3.778,2.807c0,4.278,0,4.278,2.944,4.278c4.143,0,4.143,0,4.143-3.027
				C1049.653,522.066,1049.653,522.066,1046.344,522.066z"/>
			<path fill-rule="evenodd" clip-rule="evenodd" fill="#E37E1F" d="M1120.801,708.716c0-8.004,0.025-15.982,0-23.994
				c-0.093-11.542-2.371-22.601-7.033-33.172c-0.366-0.891-0.77-1.777-0.366-2.768c2.917-6.095,5.263-12.401,6.382-19.058
				c1.356-8.363,1.486-16.691-2.891-24.41c-0.769-1.323-0.859-2.384-0.34-3.889c2.865-7.881,0.534-16.477-5.939-21.857
				c-1.119-0.925-1.667-1.869-1.797-3.314c-0.743-6.982-7.23-12.316-13.911-11.444c-3.259,0.424-6.332,1.727-9.509,2.703
				c11.266,17.3,13.312,35.875,8.752,55.486c-0.9-0.137-1.25-0.918-1.823-1.5c-6.487-6.414-12.804-12.94-19.332-19.239
				c-5.678-5.464-8.896-11.88-9.169-19.761c-20.086,0-40.198-0.033-60.324-0.033c0,30.051,0,60.104-0.013,90.16
				c0,5.922-0.024,11.849,0.013,17.774c0,1.395-0.092,2.124-1.863,2.482c-5.73,1.211-8.855,5.399-8.855,11.326
				c0,2.059,0,4.162,0.024,6.214c5.915,0,11.827,0,17.78,0c2.371,0,4.729,0,7.072,0c8.338,0,16.622,0,24.907,0
				c2.371,0,4.767,0,7.087,0c23.264,0.045,46.501,0.045,69.766,0.103C1120.956,710.526,1120.801,709.707,1120.801,708.716z"/>
			<path fill-rule="evenodd" clip-rule="evenodd" fill="#EBA93C" d="M1003.5,568.314c0-2.389-0.013-4.792-0.037-7.183
				c-5.811,1.674-10.841,4.455-13.811,9.985c-0.415,0.749-1.068,0.722-1.732,0.722c-5.041,0-10.068-0.025-15.097,0.02
				c-0.911,0-1.46-0.24-1.954-1.081c-2.631-4.475-6.539-7.255-11.463-8.937c-2.084-0.709-2.188-0.214-2.188,1.642
				c0.079,14.295,0.027,28.573,0.027,42.881c0,4.814-1.669,8.877-5.603,11.77c-7.502,5.55-15.969,9.803-22.847,17.013
				c0-3.075,0.13-5.647,0-8.208c-0.13-3.627,0.885-6.839,2.97-9.796c1.615-2.292,3.15-4.649,4.688-7.008
				c5.395-8.024,7.646-16.771,6.148-26.365c-1.706-10.694-7.255-18.959-16.087-25.035c-3.425-2.378-8.453-1.297-10.694,1.992
				c-2.344,3.367-1.484,7.334,2.137,10.095c0.547,0.392,1.095,0.796,1.614,1.192c9.928,7.53,12.089,20.164,5.316,30.578
				c-2.111,3.172-4.168,6.331-6.305,9.431c-2.763,4.033-4.065,8.467-4.038,13.372c0.077,15.468,0.038,30.937,0.038,46.418
				c0,12.211,0.039,24.425-0.038,36.636c-0.027,1.72,0.442,2.136,2.122,2.077c3.479-0.103,7.087-0.012,10.616-0.018
				c13.562-0.04,27.147-0.053,40.655-0.085c2.355,0,4.677,0,7.047,0c2.422,0,4.793,0,7.163,0c2.386,0,4.717,0,7.088,0
				c1.173,0,2.384,0,3.568,0c-0.024-2.052-0.024-4.155-0.024-6.214c0-5.927,3.125-10.115,8.855-11.326
				c1.771-0.359,1.863-1.088,1.863-2.482c-0.037-5.925-0.013-11.853-0.013-17.774c0.013-30.056,0.013-60.109,0.013-90.16
				C1003.5,577.752,1003.5,573.023,1003.5,568.314z M971.534,582.5c3.493,0,3.493,0,3.493,4.07c0,3.042,0,3.042-4.339,3.037
				c-2.763,0-2.763,0-2.763-4.404C967.925,582.5,967.925,582.5,971.534,582.5z M989.368,589.606c-3.699,0-3.699,0-3.674-4.222
				c0-2.885,0-2.885,4.298-2.885c2.79,0,2.79,0,2.79,4.325C992.782,589.606,992.782,589.606,989.368,589.606z"/>
		</g>
		<g>
			<path fill="none" d="M913.712,854.972c0,4.534,2.267,6.788,6.799,6.788h74.274v-29.896h-81.073V854.972z"/>
			<path fill="none" d="M913.712,763.946v22.641h81.073v-29.439h-74.274C915.979,757.148,913.712,759.407,913.712,763.946z"/>
			<path fill="none" d="M504.264,879.436V766.212h-33.985v114.136c5.757,0,11.437,0,17.012,0
				C492.891,880.348,498.519,880.036,504.264,879.436z"/>
			<path fill="#EBA93C" d="M739.358,1064.225c-13.926-6.031-26.926-11.934-38.988-17.664c-12.074-5.719-24.618-11.932-37.541-18.563
				c-11.842-6.031-20.816-13.209-26.991-21.531c-6.201-8.285-9.274-19.229-9.274-32.826v-9.951c0-8.168-2.945-14.201-8.82-18.133
				c-5.9-3.922-12.648-5.889-20.177-5.889c-7.528,0-14.224,1.967-20.151,5.889c-5.9,3.932-8.819,9.965-8.819,18.133v9.951
				c0,13.598-3.125,24.541-9.287,32.826c-6.187,8.322-15.201,15.5-26.951,21.531c-13,6.631-25.531,12.844-37.619,18.563
				c-12.063,5.73-25.063,11.633-38.922,17.664c-6.343,2.709-10.108,7.412-11.332,14.043c-1.199,6.643-0.469,12.973,2.24,19.029
				c3.048,6.031,7.53,10.629,13.378,13.809c5.887,3.164,12.439,3.074,19.708-0.223c12.687-5.131,24.201-10.277,34.648-15.396
				c10.396-5.158,20.894-10.422,31.471-15.852c18.732-9.678,31.63-17.834,38.741-24.463c7.085-6.645,11.385-12.988,12.896-19.031
				h0.444c0.938,2.723,2.356,5.6,4.298,8.609c2.019,3.021,4.821,6.188,8.61,9.521c3.804,3.309,8.794,6.93,14.942,10.863
				c6.201,3.908,13.989,8.311,23.342,13.133c10.537,5.443,21.103,10.705,31.485,15.838c10.393,5.145,21.973,10.264,34.635,15.422
				c7.268,3.336,13.807,3.387,19.721,0.211c5.888-3.152,10.317-7.777,13.352-13.809c2.695-5.432,3.479-11.41,2.241-17.898
				C749.452,1071.532,745.688,1066.934,739.358,1064.225z"/>
			<path fill="#EBA93C" d="M576.779,800.179c-3.359,4.832-5.027,10.572-5.027,17.201c0,6.644,1.667,12.376,5.027,17.22
				c3.257,4.834,8.428,7.255,15.344,7.255h20.869v60.69c0,7.842,2.685,13.572,8.128,17.193c5.446,3.648,11.488,5.445,18.132,5.445
				s12.688-1.797,18.094-5.445c5.485-3.621,8.141-9.352,8.141-17.193v-184.36c0-7.834-2.656-13.58-8.141-17.201
				c-5.406-3.641-11.45-5.445-18.094-5.445s-12.686,1.804-18.132,5.445c-5.443,3.621-8.128,9.366-8.128,17.201v74.731h-20.869
				C585.207,792.917,580.036,795.352,576.779,800.179z"/>
			<path fill="#EBA93C" d="M497.698,925.86c13.729-0.455,27.056-1.133,39.848-2.043c12.843-0.912,26.076-2.125,39.625-3.621
				c6.042-0.6,10.445-3.609,13.155-9.053c2.685-5.445,3.791-11.178,3.154-17.209c-0.574-6.031-2.892-11.033-6.773-14.953
				c-3.908-3.934-9.378-5.434-16.311-4.52c-2.421,0.586-4.922,0.963-7.477,1.119c-2.551,0.156-5.092,0.365-7.488,0.678V766.212
				h11.371c6.903,0,12.036-2.351,15.371-7.033c3.334-4.677,4.977-10.03,4.977-16.074s-1.642-11.391-4.977-16.087
				c-3.334-4.677-8.467-7.021-15.371-7.021h-161.25c-6.943,0-12.102,2.344-15.41,7.021c-3.309,4.697-4.989,10.043-4.989,16.087
				s1.68,11.397,4.989,16.074c3.308,4.683,8.467,7.033,15.41,7.033h13.561v114.136h-16.283c-6.956,0-12.088,2.332-15.396,7.008
				c-3.322,4.689-5.029,10.043-5.029,16.074c0,6.043,1.707,11.412,5.029,16.088c3.308,4.689,8.44,7.008,15.396,7.008
				c18.705,0,35.744,0,51.193,0C469.393,926.526,483.981,926.305,497.698,925.86z M470.278,766.212h33.985v113.224
				c-5.745,0.6-11.373,0.912-16.973,0.912c-5.576,0-11.255,0-17.012,0V766.212z"/>
			<path fill="#EBA93C" d="M699.485,961.422c5.418,3.596,11.463,5.42,18.106,5.42c6.956,0,13.13-1.824,18.588-5.42
				c5.431-3.635,8.128-9.365,8.128-17.221V715.926c0-7.849-2.698-13.586-8.128-17.208c-5.458-3.622-11.632-5.426-18.588-5.426
				c-6.644,0-12.688,1.804-18.106,5.426c-5.444,3.621-8.154,9.359-8.154,17.208v228.275
				C691.331,952.057,694.041,957.788,699.485,961.422z"/>
			<path fill="#E37E1F" d="M1116.125,831.864c6.995,0,11.959-2.241,15.019-6.773c2.982-4.533,4.508-9.821,4.508-15.86
				c0-6.037-1.525-11.313-4.508-15.838c-3.06-4.54-8.023-6.806-15.019-6.806H994.786v45.277H1116.125z"/>
			<path fill="#E37E1F" d="M1119.81,757.148c6.931,0,12.063-2.423,15.371-7.27c3.335-4.813,4.951-10.238,4.951-16.29
				c0-6.024-1.616-11.483-4.951-16.302c-3.309-4.819-8.44-7.248-15.371-7.248H994.786v47.109H1119.81z"/>
			<path fill="#E37E1F" d="M1170.496,939.227h-175.71v181.322c1.485,0.156,2.997,0.287,4.495,0.287
				c7.542,0,14.315-1.953,20.176-5.861c5.929-3.949,8.834-10.135,8.834-18.59V987.684h142.205c6.968,0,12.114-2.412,15.436-7.242
				c3.308-4.82,4.989-10.578,4.989-17.209c0-6.344-1.682-11.932-4.989-16.764C1182.61,941.635,1177.463,939.227,1170.496,939.227z"
				/>
			<path fill="#EBA93C" d="M828.105,939.227c-6.957,0-12.049,2.408-15.397,7.242c-3.32,4.832-5.002,10.42-5.002,16.764
				c0,6.631,1.682,12.389,5.002,17.209c3.349,4.83,8.44,7.242,15.397,7.242h142.19v108.701c0,8.455,2.971,14.641,8.885,18.59
				c4.651,3.111,9.888,4.924,15.605,5.574V939.227H828.105z"/>
			<path fill="#E37E1F" d="M1141.98,901.631c3.297-4.832,5.003-10.264,5.003-16.32c0-6.043-1.706-11.477-5.003-16.283
				c-3.334-4.832-8.491-7.268-15.396-7.268H994.786v47.115h131.798C1133.489,908.875,1138.646,906.454,1141.98,901.631z"/>
			<path fill="#EBA93C" d="M920.511,861.76c-4.532,0-6.799-2.254-6.799-6.788v-23.108h81.073v-45.277h-81.073v-22.641
				c0-4.54,2.267-6.798,6.799-6.798h74.274v-47.109H895.58c-14.471,0-24.542,2.721-30.089,8.146
				c-5.575,5.433-8.415,15.248-8.415,29.439V871.27c0,14.197,2.84,24.02,8.415,29.451c5.547,5.445,15.618,8.154,30.089,8.154h99.206
				V861.76H920.511z"/>
			<path fill="#E37E1F" d="M1380.658,829.624h25.557c0.17-5.289,0.3-10.837,0.3-16.764v-48.021c0-14.186-2.813-23.988-8.389-29.446
				c-5.603-5.418-15.631-8.161-30.141-8.161h-108.248c-6.956,0-12.089,2.443-15.424,7.262c-3.27,4.832-4.949,10.734-4.949,17.677
				c0,6.636,1.68,12.369,4.949,17.188c3.335,4.839,8.468,7.262,15.424,7.262h80.631c6.931,0,10.369,3.457,10.369,10.42v24.001
				c0,10.258-0.207,19.115-0.639,26.502c-0.429,7.385-1.759,14.251-3.868,20.606c-2.099,6.332-5.418,12.531-9.965,18.564
				c-4.493,6.057-10.694,12.529-18.523,19.473c-7.881,6.957-17.779,14.771-29.714,23.551c-11.917,8.768-26.469,19.031-43.715,30.807
				c-3.27,2.123-5.652,4.689-7.008,7.699c-1.367,3.021-2.057,6.252-2.057,9.742c0,3.465,0.624,6.879,1.837,10.174
				c1.211,3.322,2.721,6.344,4.545,9.078c3.921,5.422,9.326,9.119,16.295,11.074c6.942,1.979,13.406,0.859,19.501-3.387
				c19.931-14.174,36.941-26.563,51.152-37.139c14.186-10.564,26.027-20.307,35.536-29.217c9.535-8.896,17.103-17.352,22.678-25.361
				c5.458-7.777,9.536-16.035,12.401-24.686h-18.536V829.624z"/>
			<path fill="#E37E1F" d="M1497.542,703.239c-5.46-3.614-11.49-5.418-18.133-5.418c-6.969,0-13.131,1.804-18.549,5.418
				c-5.445,3.634-8.168,9.366-8.168,17.22v109.165h-46.478c-0.22,7.06-0.585,13.586-1.081,19.461
				c-0.926,10.277-2.762,19.865-5.705,28.75c-0.064,0.248-0.157,0.455-0.234,0.689h53.498v168.949
				c0,7.842,2.723,13.586,8.168,17.207c5.418,3.635,11.58,5.432,18.549,5.432c6.643,0,12.673-1.797,18.133-5.432
				c5.418-3.621,8.181-9.365,8.181-17.207V720.459C1505.722,712.605,1502.959,706.873,1497.542,703.239z"/>
			<path fill="#E37E1F" d="M1583.122,698.719c-5.418-3.622-11.617-5.426-18.561-5.426c-6.957,0-13.117,1.804-18.588,5.426
				c-5.406,3.621-8.131,9.359-8.131,17.208v350.564c0,7.855,2.725,13.586,8.131,17.221c5.471,3.596,11.631,5.432,18.588,5.432
				c6.943,0,13.143-1.836,18.561-5.432c5.445-3.635,8.129-9.365,8.129-17.221V715.926
				C1591.25,708.078,1588.567,702.34,1583.122,698.719z"/>
			<path fill="#E37E1F" d="M1405.133,849.084c0.496-5.875,0.861-12.401,1.081-19.461h-25.557v48.9h18.536
				c0.077-0.234,0.17-0.441,0.234-0.689C1402.372,868.95,1404.208,859.362,1405.133,849.084z"/>
			<path fill="#E37E1F" d="M1885.693,930.161c-22.119,3.021-44.811,5.211-68.192,6.564s-47.897,2.045-73.584,2.045
				c-6.942,0-10.446-3.479-10.446-10.434V783.4c0-6.936,3.504-10.407,10.446-10.407h111.424c6.905,0,12.063-2.416,15.346-7.25
				c3.387-4.819,5.028-10.557,5.028-17.213c0-6.936-1.642-12.811-5.028-17.644c-3.282-4.845-8.44-7.268-15.346-7.268h-141.332
				c-14.51,0-24.527,2.71-30.103,8.167c-5.628,5.433-8.391,15.248-8.391,29.446v189.314c0,14.186,2.763,24.008,8.391,29.439
				c5.575,5.418,15.593,8.154,30.103,8.154c22.327,0,42.518-0.221,60.493-0.689c17.949-0.445,34.194-1.135,48.64-2.047
				c14.563-0.898,27.446-1.887,38.766-2.93c11.308-1.057,21.649-2.189,31.003-3.412c6.642-0.9,11.162-3.973,13.585-9.275
				c2.436-5.289,3.321-11.385,2.723-18.328c-0.587-6.631-2.97-12.076-6.982-16.32
				C1898.119,930.917,1892.622,929.249,1885.693,930.161z"/>
			<path fill="#E37E1F" d="M1995.503,699.168c-5.915-3.921-12.454-5.875-19.684-5.875c-7.569,0-14.29,1.954-20.178,5.875
				c-5.875,3.934-8.832,10.122-8.832,18.568V825.99h-79.226c-6.98,0-12.114,2.41-15.422,7.255
				c-3.321,4.821-5.003,10.734-5.003,17.651c0,6.644,1.682,12.388,5.003,17.208c3.308,4.846,8.441,7.242,15.422,7.242h79.226
				v189.334c0,8.453,2.957,14.654,8.832,18.563c5.888,3.934,12.608,5.9,20.178,5.9c7.229,0,13.769-1.967,19.684-5.9
				c5.912-3.908,8.817-10.109,8.817-18.563V717.736C2004.321,709.29,2001.416,703.102,1995.503,699.168z"/>
		</g>
	</g>
	<text transform="matrix(1 0 0 1 1357.8394 659.6069)" fill="#E37E1F" font-family="'NanumSquareRoundR'" font-size="61.5119">반려동물과 함께하는 세상</text>
</g>
</svg>
